<?xml version="1.0" encoding="utf-8"?>
<!-- Generator: Adobe Illustrator 22.1.0, SVG Export Plug-In . SVG Version: 6.00 Build 0)  -->
<svg version="1.1" id="Layer_4" xmlns="http://www.w3.org/2000/svg" xmlns:xlink="http://www.w3.org/1999/xlink" x="0px" y="0px"
	 viewBox="0 0 23.2 60.8" style="enable-background:new 0 0 23.2 60.8;" xml:space="preserve">
<style type="text/css">
	.st0{fill:#FFC2C2;stroke:#AD0B0B;stroke-width:1.35;stroke-linejoin:round;stroke-miterlimit:10;}
	.st1{fill:#E26D6D;}
</style>
<path class="st0" d="M14.8,9.5c-0.2-1-0.4-2.4-0.4-4.1h1.3V4.1h-0.9V0.7H8.5v3.4h-1v1.3h1.4c0,1.8-0.2,3.1-0.4,4.1
	C4.3,11,0.8,15.9,0.7,20.6l0,0v27.8c0,6.1,5,11.8,5,11.8h4.1c0,0,0.6-3.8,1.8-3.8s1.9,3.8,1.9,3.8h4.1c0,0,5-5.7,5-11.8V20.5l0,0
	C22.5,15.9,18.9,11,14.8,9.5z"/>
<rect x="8.5" y="0.7" class="st1" width="6.3" height="3.4"/>
<rect x="0.7" y="23" class="st1" width="21.6" height="21.6"/>
</svg>
